<?xml version="1.0" standalone="no"?>
<!DOCTYPE svg PUBLIC "-//W3C//DTD SVG 20010904//EN"
 "http://www.w3.org/TR/2001/REC-SVG-20010904/DTD/svg10.dtd">
<svg version="1.0" xmlns="http://www.w3.org/2000/svg"
 width="1024.000000pt" height="1024.000000pt" viewBox="0 0 1024.000000 1024.000000"
 preserveAspectRatio="xMidYMid meet">
<metadata>
Created by potrace 1.14, written by Peter Selinger 2001-2017
</metadata>
<g transform="translate(0.000000,1024.000000) scale(0.100000,-0.100000)"
fill="#000000" stroke="none">
<path d="M2470 8137 c-3 -3 -23 -8 -45 -11 -87 -14 -98 -16 -115 -21 -10 -3
-27 -8 -37 -10 -10 -2 -38 -8 -63 -14 -25 -7 -55 -14 -68 -17 -25 -5 -228 -71
-252 -81 -8 -3 -17 -7 -20 -8 -26 -9 -48 -18 -62 -26 -10 -5 -23 -9 -28 -9
-17 0 -304 -142 -312 -154 -4 -6 -8 -7 -8 -2 0 5 -8 2 -17 -6 -10 -8 -25 -18
-33 -22 -33 -15 -210 -129 -240 -154 -8 -7 -51 -40 -95 -74 -44 -34 -89 -70
-100 -79 -11 -10 -49 -44 -84 -76 -92 -83 -225 -220 -296 -304 -41 -50 -111
-137 -130 -163 -11 -16 -25 -33 -30 -40 -6 -6 -43 -60 -83 -121 -40 -60 -76
-115 -80 -121 -42 -60 -168 -305 -216 -419 -45 -107 -54 -182 -33 -275 19 -83
38 -133 80 -210 l33 -62 75 -4 c40 -2 83 -6 94 -8 11 -2 54 -11 95 -20 41 -9
100 -23 130 -31 30 -9 64 -18 75 -21 29 -8 38 -10 55 -17 8 -3 56 -18 105 -33
50 -15 96 -31 103 -37 6 -5 12 -7 12 -4 0 3 14 1 31 -5 28 -9 29 -13 22 -42
-4 -17 -8 -62 -7 -101 1 -72 8 -91 69 -183 31 -47 45 -90 50 -157 7 -92 23
-139 100 -300 38 -79 44 -100 47 -171 3 -63 10 -93 32 -137 15 -32 31 -57 35
-57 4 0 16 -8 27 -18 10 -10 45 -29 78 -42 79 -34 117 -73 140 -145 24 -77 53
-119 123 -180 132 -116 180 -146 285 -182 57 -20 114 -43 128 -53 14 -10 63
-36 109 -59 46 -22 89 -45 95 -50 11 -9 102 -39 146 -47 46 -9 105 -44 155
-92 28 -26 61 -53 75 -60 14 -7 67 -44 119 -82 52 -39 98 -70 101 -70 10 0
104 -63 108 -72 2 -5 10 -8 18 -8 8 0 14 -4 14 -9 0 -16 118 -67 209 -91 46
-12 93 -26 105 -30 12 -5 55 -19 96 -30 41 -12 100 -30 130 -40 46 -15 83 -25
110 -30 3 -1 23 -5 45 -11 22 -5 51 -12 64 -15 14 -3 44 -18 68 -35 24 -16 46
-29 49 -29 3 0 18 -9 33 -19 28 -20 125 -56 176 -64 79 -14 109 -22 235 -64
135 -45 156 -54 197 -89 53 -46 67 -56 102 -75 46 -24 110 -31 170 -19 98 19
118 19 163 -8 148 -86 183 -98 293 -106 101 -8 119 -12 235 -59 l105 -42 126
2 126 2 72 -69 c84 -81 120 -95 276 -106 55 -3 109 -8 120 -11 22 -5 51 -6
160 -4 39 1 84 -1 100 -4 129 -20 287 -25 385 -12 30 4 75 10 100 12 25 3 56
8 70 12 34 9 31 8 74 17 21 4 46 11 55 16 9 5 43 15 76 22 33 6 62 12 65 13 3
0 48 15 101 33 98 33 102 34 179 47 55 9 116 32 152 57 l27 19 76 -36 c67 -33
80 -36 127 -30 29 4 69 8 88 10 38 4 96 13 120 20 8 2 31 7 50 10 19 3 58 12
85 20 28 8 61 16 75 18 14 2 32 7 40 10 8 3 42 14 75 25 103 34 186 68 285
114 52 25 124 58 160 74 130 57 258 160 391 314 68 79 179 233 179 248 0 5 4
12 8 14 13 5 110 172 184 317 62 120 186 389 192 416 1 6 10 27 19 49 9 21 17
44 17 50 0 7 4 16 9 21 13 15 99 251 102 280 0 6 4 15 9 20 6 8 87 256 94 290
2 6 8 30 15 54 7 24 9 47 4 50 -4 3 -12 14 -18 23 -53 93 -310 439 -380 514
-11 12 -38 43 -60 69 -113 133 -314 339 -464 475 -46 41 -88 80 -95 86 -6 6
-45 39 -86 73 -41 34 -84 70 -95 79 -11 9 -40 33 -65 52 -25 19 -47 37 -50 40
-20 22 -426 310 -437 310 -4 0 -15 7 -25 17 -10 9 -27 21 -37 27 -78 44 -151
91 -151 98 0 4 -5 8 -11 8 -7 0 -35 14 -63 32 -28 17 -76 45 -106 61 -30 17
-67 38 -82 49 -14 10 -33 18 -42 18 -9 0 -16 4 -16 10 0 5 -11 12 -25 16 -14
3 -25 9 -25 13 0 4 -15 12 -32 19 -18 6 -49 22 -68 34 -19 12 -37 23 -40 23
-8 2 -113 55 -130 65 -19 11 -206 99 -285 135 -33 14 -69 30 -80 35 -53 24
-141 63 -145 65 -19 7 -51 20 -87 36 -24 10 -45 19 -47 19 -2 0 -21 8 -42 17
-22 9 -43 18 -49 19 -5 2 -64 24 -130 49 -137 53 -176 67 -260 96 -33 11 -69
24 -80 29 -11 5 -101 34 -200 65 -99 31 -187 60 -195 63 -8 3 -19 6 -25 7 -5
0 -17 4 -25 7 -16 7 -124 38 -137 39 -5 1 -18 5 -30 10 -19 7 -185 53 -233 64
-8 2 -42 11 -75 20 -33 9 -67 18 -75 20 -14 3 -157 39 -205 51 -11 3 -29 6
-40 8 -11 2 -29 6 -40 9 -11 3 -31 9 -45 11 -14 3 -56 13 -95 22 -38 8 -79 17
-90 19 -11 2 -53 10 -92 19 -40 9 -87 18 -105 21 -18 3 -40 8 -48 10 -8 2 -54
11 -102 20 -49 8 -127 22 -175 31 -49 8 -97 17 -108 18 -11 2 -36 6 -55 9 -58
11 -222 36 -270 42 -25 3 -56 8 -70 10 -14 3 -45 7 -70 10 -25 3 -61 7 -80 10
-38 5 -180 23 -245 30 -87 11 -218 24 -395 39 -44 4 -195 16 -275 22 -107 7
-351 15 -355 11z"/>
</g>
</svg>
