<svg width="800" height="800" viewBox="0 0 800 800" fill="none" xmlns="http://www.w3.org/2000/svg">
<g clip-path="url(#clip0_1_6)">
<rect width="800" height="800" fill="#2E51A2"/>
<path d="M314.589 291.375V484.401L266.399 484.337V364.841L219.875 419.937L174.296 363.605L173.834 484.724H125V291.418H175.488L218.231 349.737L264.423 291.397L314.589 291.375ZM512.31 338.791L512.879 483.972H458.685L458.502 418.176H394.339C395.939 429.616 399.151 447.18 403.899 458.996C407.455 467.73 410.731 476.184 417.263 484.842L378.193 510.623C370.19 496.046 363.938 479.986 358.073 462.906C352.202 446.788 348.3 430.02 346.45 412.966C344.506 395.778 344.227 379.257 348.899 362.273C353.495 345.767 362.73 330.925 375.508 319.509C382.684 312.795 392.695 308.047 400.72 303.761C408.744 299.475 417.746 297.713 426.093 295.532C435.062 293.397 444.191 291.996 453.389 291.343C462.509 290.559 478.762 289.828 508.174 290.698L520.667 330.777H457.524C443.936 330.96 437.404 330.777 426.791 335.568C418.366 339.553 411.188 345.759 406.028 353.52C400.868 361.28 397.922 370.301 397.508 379.611L458.534 380.363L459.404 338.888H512.32L512.31 338.791ZM603.801 290.72V442.561L675 443.259L665.149 483.939H554.988V290L603.801 290.72Z" fill="white"/>
</g>
<defs>
<clipPath id="clip0_1_6">
<rect width="800" height="800" fill="white"/>
</clipPath>
</defs>
</svg>
